<svg width="" height="" viewBox="0 0 38 40" fill="none" xmlns="http://www.w3.org/2000/svg">
    <path
        d="M11.9091 22.2857C12.4686 22.2857 12.9222 21.8322 12.9222 21.2728C12.9222 20.7133 12.4686 20.2598 11.9091 20.2598C11.3497 20.2598 10.8961 20.7133 10.8961 21.2728C10.8961 21.8322 11.3497 22.2857 11.9091 22.2857Z"
        stroke="white" />
    <path
        d="M1.33213 23.3955C1.55975 19.7534 1.72427 17.1702 2.10572 15.2157C2.47877 13.304 3.02354 12.2043 3.87039 11.4088C4.71724 10.6133 5.84881 10.1382 7.78007 9.88511C9.7547 9.62635 12.3432 9.62329 15.9924 9.62329H22.0074C25.6565 9.62329 28.245 9.62635 30.2198 9.88511C32.151 10.1382 33.2826 10.6133 34.1295 11.4088C34.9761 12.2043 35.5209 13.304 35.8941 15.2157C36.2754 17.1702 36.44 19.7534 36.6677 23.3955C36.9226 27.4758 37.1009 30.3796 36.9363 32.5885C36.7753 34.7537 36.2981 36.0031 35.433 36.9239C34.5679 37.8447 33.3506 38.3988 31.1998 38.6946C29.0054 38.9965 26.0959 38.9999 22.0074 38.9999H15.9924C11.9039 38.9999 8.99447 38.9965 6.79998 38.6946C4.64906 38.3988 3.43183 37.8447 2.56679 36.9239C1.70172 36.0031 1.22446 34.7537 1.06335 32.5885C0.898976 30.3796 1.07709 27.4758 1.33213 23.3955Z"
        stroke="white" stroke-width="2" />
    <path fill-rule="evenodd" clip-rule="evenodd"
        d="M10.5953 14.1818C11.6853 14.1818 11.7623 12.8996 11.5 11.8417C11.3641 11.2935 11.292 10.7201 11.292 10.1299C11.292 6.21367 15.0836 2 19 2C22.9164 2 26.3218 5.58379 26.3218 9.5C26.3218 10.0902 26.4577 11.2935 26.3218 11.8417C26.0596 12.8996 26.3153 14.1818 27.4052 14.1818C27.9413 14.1818 28.4342 13.8669 28.605 13.3588C28.9458 12.3447 29.1306 11.2589 29.1306 10.1299C29.1306 4.53531 24.595 0 19.0003 0C13.4055 0 8.87 4.53531 8.87 10.1299C8.87 11.2589 9.05469 12.3447 9.39551 13.3588C9.56625 13.8669 10.0594 14.1818 10.5953 14.1818Z"
        fill="white" />
    <path
        d="M26.0912 22.2857C26.6506 22.2857 27.1042 21.8322 27.1042 21.2728C27.1042 20.7133 26.6506 20.2598 26.0912 20.2598C25.5317 20.2598 25.0781 20.7133 25.0781 21.2728C25.0781 21.8322 25.5317 22.2857 26.0912 22.2857Z"
        stroke="white" />
</svg>