<svg width="16" height="19" viewBox="0 0 16 19" fill="none" xmlns="http://www.w3.org/2000/svg">
<path d="M6.40183 13.0516L3.68606 10.634C3.34963 10.3345 3.25503 9.84589 3.45507 9.44097L7.22943 1.80126C7.59551 1.06029 8.64747 1.05626 9.01655 1.7944L12.6774 9.11572C12.9143 9.5896 12.7414 10.1673 12.2832 10.4329L7.56377 13.1689C7.19123 13.3849 6.72312 13.3376 6.40183 13.0516Z" fill="white"/>
<path d="M9.27607 12.8609L6.9688 14.1502C6.66585 14.3194 6.28516 14.2383 6.07798 13.9603C5.59085 13.3066 4.57206 13.8889 4.88378 14.6428L6.05347 17.4719C6.34077 18.1667 7.26228 18.3057 7.74333 17.7267L10.5281 14.3749C11.2369 13.5218 10.2434 12.3204 9.27607 12.8609Z" fill="white"/>
</svg>
