<svg width="" height="" viewBox="0 0 210 24" fill="none" xmlns="http://www.w3.org/2000/svg">
    <path
        d="M3.43555 0.03125C5.14453 0.03125 5.99902 0.851562 5.99902 2.49219V16.8477C5.99902 17.9414 6.51172 18.4883 7.53711 18.4883H21.8926C22.918 18.4883 23.4307 17.9414 23.4307 16.8477V2.49219C23.4307 0.851562 24.2783 0.03125 25.9736 0.03125C27.6963 0.03125 28.5576 0.851562 28.5576 2.49219V18.8779C28.5576 21.8857 27.04 23.3896 24.0049 23.3896H23.9639L5.48633 23.4102C2.42383 23.4102 0.885742 21.9062 0.87207 18.8984V2.49219C0.87207 0.851562 1.72656 0.03125 3.43555 0.03125ZM31.6338 6.18359H46.4814C50.9248 6.18359 53.1533 8.37109 53.167 12.7461C53.167 14.3867 52.3125 15.207 50.6035 15.207C48.8945 15.207 48.0332 14.3867 48.0195 12.7461C48.0195 11.6523 47.5137 11.1055 46.502 11.1055H36.7607V20.9492C36.7607 22.5898 35.9131 23.4102 34.2178 23.4102C32.5088 23.4102 31.6543 22.5898 31.6543 20.9492L31.6338 6.18359ZM61.3701 17.2578C61.3701 18.0781 61.8828 18.4883 62.9082 18.4883H73.1826C74.8916 18.4883 75.7461 19.3086 75.7461 20.9492C75.7324 22.5898 74.8779 23.4102 73.1826 23.4102H60.8574C57.7949 23.4102 56.2568 21.9062 56.2432 18.8984V10.6953C56.2432 7.6875 57.7812 6.18359 60.8574 6.18359L71.1113 6.2041C74.1875 6.2041 75.7324 7.70801 75.7461 10.7158V12.7461C75.7461 15.7539 74.208 17.2578 71.1318 17.2578H61.3701ZM69.5938 12.3359C70.2773 12.3359 70.6191 12.1309 70.6191 11.7207C70.6191 11.3105 70.4482 11.1055 70.1064 11.1055H62.9082C61.8828 11.1055 61.3701 11.5156 61.3701 12.3359H69.5938ZM93.1572 12.3359C93.1572 11.5156 92.6445 11.1055 91.6191 11.1055H81.3652C79.6562 11.1055 78.8018 10.2852 78.8018 8.64453C78.8154 7.00391 79.6699 6.18359 81.3652 6.18359H93.6699C96.7324 6.18359 98.2705 7.6875 98.2842 10.6953V23.4102L83.4365 23.3896C80.3604 23.3896 78.8154 21.8857 78.8018 18.8779V16.8477C78.8018 13.8398 80.3398 12.3359 83.416 12.3359H93.1572ZM84.9541 17.2578C84.2705 17.2578 83.9287 17.4629 83.9287 17.873C83.9287 18.2832 84.0996 18.4883 84.4414 18.4883H93.1572V17.2578H84.9541ZM101.36 6.18359H116.208C120.651 6.18359 122.88 8.37109 122.894 12.7461C122.894 14.3867 122.039 15.207 120.33 15.207C118.621 15.207 117.76 14.3867 117.746 12.7461C117.746 11.6523 117.24 11.1055 116.229 11.1055H106.487V20.9492C106.487 22.5898 105.64 23.4102 103.944 23.4102C102.235 23.4102 101.381 22.5898 101.381 20.9492L101.36 6.18359ZM130.584 6.18359L144.919 6.2041C147.995 6.2041 149.54 7.70801 149.554 10.7158V11.249C149.554 12.8486 148.699 13.6553 146.99 13.6689C145.281 13.6689 144.427 12.8486 144.427 11.208V11.1055H132.635C131.609 11.1055 131.097 11.6523 131.097 12.7461V16.8477C131.097 17.9414 131.609 18.4883 132.635 18.4883H144.427V18.3447C144.427 16.7178 145.274 15.9043 146.97 15.9043C148.679 15.918 149.54 16.7451 149.554 18.3857L149.533 18.8984C149.533 21.9062 148.002 23.4102 144.939 23.4102H130.584C127.521 23.4102 125.983 21.9062 125.97 18.8984V10.6953C125.97 7.6875 127.508 6.18359 130.584 6.18359ZM155.193 18.4883C155.918 18.4883 156.526 18.7344 157.019 19.2266C157.511 19.7188 157.757 20.293 157.757 20.9492C157.757 21.6055 157.511 22.1797 157.019 22.6719C156.526 23.1641 155.918 23.4102 155.193 23.4102C154.469 23.4102 153.86 23.1641 153.368 22.6719C152.876 22.1797 152.63 21.6055 152.63 20.9492C152.63 20.293 152.876 19.7188 153.368 19.2266C153.86 18.7344 154.469 18.4883 155.193 18.4883ZM165.447 6.18359L179.782 6.2041C182.858 6.2041 184.403 7.70801 184.417 10.7158V11.249C184.417 12.8486 183.562 13.6553 181.854 13.6689C180.145 13.6689 179.29 12.8486 179.29 11.208V11.1055H167.498C166.473 11.1055 165.96 11.6523 165.96 12.7461V16.8477C165.96 17.9414 166.473 18.4883 167.498 18.4883H179.29V18.3447C179.29 16.7178 180.138 15.9043 181.833 15.9043C183.542 15.918 184.403 16.7451 184.417 18.3857L184.396 18.8984C184.396 21.9062 182.865 23.4102 179.803 23.4102H165.447C162.385 23.4102 160.847 21.9062 160.833 18.8984V10.6953C160.833 7.6875 162.371 6.18359 165.447 6.18359ZM187.493 10.7363C187.493 7.72852 189.031 6.22461 192.107 6.22461H204.412C207.488 6.22461 209.026 7.71484 209.026 10.6953V18.8984C209.026 21.9062 207.488 23.4102 204.412 23.4102H192.128C189.052 23.4102 187.507 21.9062 187.493 18.8984V10.7363ZM203.899 12.7461C203.886 11.6797 203.366 11.1465 202.341 11.1465H194.138C193.126 11.1465 192.62 11.6797 192.62 12.7461V16.8887C192.62 17.9551 193.126 18.4883 194.138 18.4883H202.341C203.366 18.4883 203.886 17.9414 203.899 16.8477V12.7461Z"
        fill="white" />
</svg>