<svg width="141" height="99" viewBox="0 0 141 99" fill="none" xmlns="http://www.w3.org/2000/svg">
<circle cx="38" cy="38" r="38" fill="white"/>
<path d="M50.6867 27.2986C49.9537 26.5699 49.0833 25.9918 48.1254 25.5974C47.1675 25.203 46.1407 25 45.1038 25C44.0669 25 43.0402 25.203 42.0822 25.5974C41.1243 25.9918 40.254 26.5699 39.5209 27.2986L37.9996 28.8102L36.4783 27.2986C34.9976 25.8273 32.9894 25.0008 30.8954 25.0008C28.8014 25.0008 26.7932 25.8273 25.3125 27.2986C23.8318 28.7699 23 30.7653 23 32.846C23 34.9267 23.8318 36.9222 25.3125 38.3935L26.8338 39.9051L37.9996 51L49.1654 39.9051L50.6867 38.3935C51.4201 37.6651 52.0019 36.8003 52.3988 35.8484C52.7957 34.8966 53 33.8764 53 32.846C53 31.8157 52.7957 30.7955 52.3988 29.8436C52.0019 28.8918 51.4201 28.027 50.6867 27.2986V27.2986Z" stroke="#7C6BCA" stroke-width="2" stroke-linecap="round" stroke-linejoin="round"/>
<path d="M55.0216 51.7798C54.2256 51.4727 53.4354 52.2394 53.7182 53.0442L65.1041 85.4501C65.4118 86.326 66.6431 86.3463 66.9796 85.4811L72.8363 70.4209C72.9404 70.1533 73.1545 69.9434 73.424 69.8445L85.5041 65.4152C86.3706 65.0974 86.3808 63.8755 85.5197 63.5433L55.0216 51.7798Z" fill="white" stroke="#626262" stroke-linecap="round" stroke-linejoin="round"/>
<rect x="76" y="76" width="65" height="23" rx="9" fill="white"/>
<path d="M101.027 92H96.4914C96.3328 92 96.2534 91.9207 96.2534 91.762V83.236C96.2534 83.0773 96.3328 82.998 96.4914 82.998H97.3734C97.5321 82.998 97.6114 83.0773 97.6114 83.236V90.642C97.6114 90.7353 97.6674 90.782 97.7794 90.782H101.027C101.186 90.782 101.265 90.866 101.265 91.034V91.762C101.265 91.9207 101.186 92 101.027 92ZM105.678 92H104.446C103.756 92 103.219 91.8087 102.836 91.426C102.463 91.0433 102.276 90.5113 102.276 89.83V87.03C102.276 86.3393 102.463 85.8073 102.836 85.434C103.219 85.0513 103.756 84.86 104.446 84.86H105.678C106.36 84.86 106.892 85.0513 107.274 85.434C107.666 85.8073 107.862 86.3393 107.862 87.03V89.83C107.862 90.5113 107.666 91.0433 107.274 91.426C106.892 91.8087 106.36 92 105.678 92ZM104.642 90.81H105.496C106.168 90.81 106.504 90.4693 106.504 89.788V87.072C106.504 86.3907 106.168 86.05 105.496 86.05H104.642C104.288 86.05 104.031 86.134 103.872 86.302C103.714 86.4607 103.634 86.7173 103.634 87.072V89.788C103.634 90.1427 103.714 90.404 103.872 90.572C104.031 90.7307 104.288 90.81 104.642 90.81ZM109.023 84.86H109.961C110.11 84.86 110.199 84.9393 110.227 85.098L111.683 90.726H111.781L113.209 85.098C113.246 84.9393 113.344 84.86 113.503 84.86H114.427C114.595 84.86 114.651 84.9393 114.595 85.098L112.705 91.748C112.668 91.916 112.565 92 112.397 92H111.053C110.885 92 110.782 91.916 110.745 91.748L108.855 85.098C108.818 84.9393 108.874 84.86 109.023 84.86ZM120.8 92H117.776C117.086 92 116.549 91.8087 116.166 91.426C115.793 91.0433 115.606 90.5113 115.606 89.83V87.03C115.606 86.3393 115.793 85.8073 116.166 85.434C116.549 85.0513 117.086 84.86 117.776 84.86H118.924C119.615 84.86 120.152 85.0513 120.534 85.434C120.917 85.8073 121.108 86.3393 121.108 87.03V88.808C121.108 88.976 121.024 89.06 120.856 89.06H117.104C117.002 89.06 116.95 89.1067 116.95 89.2V89.802C116.95 90.4833 117.291 90.824 117.972 90.824H120.8C120.968 90.824 121.052 90.908 121.052 91.076V91.776C121.052 91.9253 120.968 92 120.8 92ZM117.104 88.108H119.61C119.704 88.108 119.75 88.0613 119.75 87.968V87.072C119.75 86.7173 119.671 86.4607 119.512 86.302C119.354 86.134 119.097 86.05 118.742 86.05H117.972C117.618 86.05 117.361 86.134 117.202 86.302C117.044 86.4607 116.964 86.7173 116.964 87.072V87.968C116.964 88.0613 117.011 88.108 117.104 88.108Z" fill="#7C6BCA"/>
</svg>
