<svg width="" height="" viewBox="0 0 111 111" fill="none" xmlns="http://www.w3.org/2000/svg">
    <circle cx="55.5" cy="55.5" r="55.5" fill="url(#paint0_linear_0_39)" />
    <path
        d="M50.0543 60.079L47.4944 52.8632C47.3376 52.4211 47.5092 51.9294 47.907 51.6808L63.3517 42.03C64.0416 41.599 64.9301 42.1281 64.8797 42.9401L63.8326 59.8066C63.7998 60.3339 63.3627 60.7447 62.8345 60.7447H50.9968C50.5734 60.7447 50.1959 60.478 50.0543 60.079Z"
        fill="white" />
    <path
        d="M48.8692 61.76L48.3281 59.4448C48.0622 58.3074 46.3949 58.4708 46.3549 59.6382L46.0552 68.3877C46.0298 69.1295 46.7929 69.6395 47.4685 69.3323L59.8427 63.7064C60.861 63.2434 60.4669 61.7127 59.3516 61.7991L49.9202 62.5294C49.4279 62.5675 48.9816 62.2407 48.8692 61.76Z"
        fill="white" />
    <path
        d="M99.5473 54.9577C100.477 55.0044 100.918 55.5032 100.87 56.4542L100.679 60.258C100.632 61.209 100.147 61.6613 99.2258 61.615L96.6899 61.4877C95.7601 61.441 95.319 60.9422 95.3668 59.9913L95.5574 56.1938C95.6052 55.2429 96.0941 54.7886 97.0241 54.8311L99.5473 54.9577ZM98.6714 59.9983C99.0012 60.0106 99.1741 59.8583 99.19 59.5413L99.3174 57.0054C99.3331 56.6927 99.1761 56.528 98.8464 56.5115L97.5658 56.4472C97.2361 56.4306 97.0635 56.5787 97.0478 56.8915L96.9204 59.4274C96.9045 59.7443 97.0655 59.9134 97.4034 59.9346L98.6714 59.9983Z"
        fill="white" />
    <path
        d="M100.194 61.6014L99.2985 66.109C99.0305 67.458 98.232 68.0026 96.903 67.7429C96.4049 67.6439 96.2074 67.3351 96.3105 66.8162C96.4136 66.2974 96.7146 66.0854 97.2135 66.1802C97.5455 66.2461 97.742 66.1256 97.8031 65.8184L98.3906 62.8611L95.4021 62.2673C94.904 62.1684 94.7061 61.8616 94.8084 61.3469C94.9115 60.8281 95.212 60.6181 95.7101 60.7171L100.194 61.6014Z"
        fill="white" />
    <path
        d="M94.8053 68.0986C94.5659 68.0139 94.3933 68.1211 94.2874 68.4203L93.2263 71.4182C93.0498 71.9169 92.7222 72.0815 92.2435 71.9121C91.7662 71.7386 91.6151 71.4046 91.7902 70.9099L93.063 67.3136C93.3793 66.42 93.977 66.1265 94.856 66.4332L97.2496 67.2803C98.1272 67.591 98.4072 68.1951 98.0895 69.0927L97.0246 72.0825C96.7069 72.9801 96.1085 73.2756 95.2294 72.9689L94.637 72.7592C93.7594 72.4486 93.4794 71.8445 93.7971 70.9469L94.8053 68.0986ZM95.3921 71.0064C95.3215 71.2059 95.346 71.3268 95.4657 71.3692C95.5854 71.4115 95.6629 71.3828 95.6982 71.2831L96.4416 69.1828C96.5475 68.8836 96.4808 68.6916 96.2414 68.6069L95.3921 71.0064Z"
        fill="white" />
    <path
        d="M93.2 75.934L94.2004 73.9503L91.4799 72.5783C91.0265 72.3496 90.918 72.001 91.1543 71.5325C91.3925 71.0602 91.7383 70.9384 92.1917 71.167L96.2753 73.2194L93.0596 79.5955C92.4403 80.8235 91.5261 81.1326 90.3169 80.5228L88.047 79.3851C87.5936 79.1565 87.486 78.806 87.7242 78.3337C87.9624 77.8614 88.3092 77.7377 88.7645 77.9626L91.0315 79.1059C91.3338 79.2584 91.5555 79.1948 91.6965 78.9152L92.4854 77.3509L89.7649 75.9789C89.3115 75.7502 89.2029 75.4016 89.4392 74.9331C89.6774 74.4608 90.0232 74.339 90.4767 74.5676L93.2 75.934Z"
        fill="white" />
    <path
        d="M86.4177 86.3558C86.0356 86.7216 85.6689 86.7211 85.3178 86.3543L82.6838 83.6121C82.3298 83.2422 82.3438 82.8744 82.7259 82.5086C83.108 82.1428 83.4746 82.1433 83.8258 82.5101L86.4729 85.2661C86.8182 85.6268 86.7998 85.99 86.4177 86.3558ZM87.7346 87.7314C87.3524 88.0972 86.9858 88.0967 86.6347 87.7298C86.2835 87.363 86.299 86.9967 86.6811 86.6309C87.0632 86.2651 87.4298 86.2656 87.781 86.6325C88.1321 86.9993 88.1167 87.3656 87.7346 87.7314Z"
        fill="white" />
    <path
        d="M81.6928 85.4202L79.3996 87.3876C79.1651 87.5887 79.1581 87.8178 79.3785 88.0747L80.2052 89.0383C80.4256 89.2952 80.6563 89.3203 80.8971 89.1137L83.1807 87.1546L81.6928 85.4202ZM81.8891 90.2699C80.8453 91.1654 79.8825 91.0993 79.0007 90.0715L78.1741 89.108C77.2924 88.0802 77.3718 87.12 78.4124 86.2272L80.7057 84.2599L79.9617 83.3927C79.631 83.0073 79.6649 82.6437 80.0631 82.302C80.4646 81.9576 80.8279 81.9749 81.153 82.3539L84.3851 86.1213L84.39 86.1172L85.3819 87.2734L81.8891 90.2699Z"
        fill="white" />
    <path
        d="M78.5698 92.2056L74.5404 94.7411C74.0931 95.0235 73.735 94.9517 73.4663 94.5258C73.1952 94.0964 73.2834 93.7405 73.7307 93.4582L77.746 90.9241C77.8368 90.8618 77.8494 90.7787 77.7839 90.675C77.7161 90.5676 77.6375 90.5421 77.5481 90.5986L74.3273 92.6313C73.3409 93.2489 72.5399 93.0738 71.9242 92.1063C71.318 91.1378 71.5069 90.343 72.4911 89.7219L76.517 87.181C76.9644 86.8987 77.3236 86.9722 77.5946 87.4017C77.8656 87.8311 77.7775 88.187 77.3301 88.4693L73.3041 91.0102C73.2147 91.0667 73.2038 91.1486 73.2716 91.2559C73.3439 91.3704 73.4247 91.3995 73.5142 91.343L76.735 89.3103C77.7191 88.6892 78.5161 88.8618 79.1259 89.828C79.7357 90.7942 79.5503 91.5868 78.5698 92.2056Z"
        fill="white" />
    <path
        d="M65.4492 92.3593L69.6751 90.5533C70.9398 90.0128 71.8382 90.3652 72.3704 91.6104L73.374 93.9427C73.5736 94.4096 73.4302 94.747 72.9438 94.9549C72.4573 95.1628 72.1144 95.0333 71.9148 94.5663L70.9111 92.234C70.7781 91.9227 70.5656 91.8294 70.2738 91.9541L67.5071 93.1366L68.7045 95.9383C68.904 96.4053 68.7626 96.7418 68.28 96.9481C67.7936 97.1559 67.4487 97.0272 67.2452 96.5619L65.4492 92.3593Z"
        fill="white" />
    <path
        d="M46.3305 97.3669L41.8408 96.3855C40.4972 96.0919 39.9679 95.2831 40.2529 93.9593C40.3614 93.4632 40.674 93.2716 41.1907 93.3845C41.7075 93.4975 41.9137 93.8025 41.8094 94.2995C41.7372 94.6302 41.854 94.829 42.1599 94.8959L45.1055 95.5397L45.7561 92.5631C45.8646 92.067 46.1751 91.875 46.6877 91.9871C47.2045 92.1 47.4087 92.4046 47.3002 92.9007L46.3305 97.3669Z"
        fill="white" />
    <path
        d="M39.9126 91.8434C40.0018 91.6056 39.8978 91.431 39.6007 91.3195L36.6232 90.2023C36.1279 90.0165 35.9695 89.6858 36.1479 89.2104C36.3303 88.7364 36.6671 88.5916 37.1584 88.776L40.7302 90.1162C41.6177 90.4492 41.8998 91.0523 41.5767 91.9254L40.6848 94.3026C40.3577 95.1743 39.7484 95.4429 38.857 95.1084L35.8877 93.9874C34.9962 93.6529 34.712 93.0491 35.0351 92.176L35.2559 91.5876C35.583 90.716 36.1922 90.4474 37.0837 90.7819L39.9126 91.8434ZM36.9942 92.3755C36.7961 92.3011 36.6748 92.3234 36.6302 92.4423C36.5856 92.5611 36.6128 92.6391 36.7118 92.6763L38.7979 93.459C39.095 93.5705 39.2882 93.5074 39.3774 93.2697L36.9942 92.3755Z"
        fill="white" />
    <path
        d="M32.1267 90.0941L34.0915 91.131L35.5137 88.4364C35.7507 87.9873 36.1012 87.8852 36.5653 88.1302C37.0331 88.3771 37.1485 88.7251 36.9115 89.1742L34.7839 93.219L28.4684 89.8859C27.2521 89.2439 26.9599 88.3242 27.592 87.1266L28.7715 84.8781C29.0085 84.429 29.361 84.3279 29.8288 84.5748C30.2966 84.8217 30.4139 85.1707 30.1806 85.6218L28.9955 87.8673C28.8374 88.1667 28.8969 88.3895 29.1739 88.5356L30.7233 89.3534L32.1454 86.6587C32.3824 86.2096 32.733 86.1075 33.1971 86.3525C33.6649 86.5994 33.7803 86.9474 33.5432 87.3965L32.1267 90.0941Z"
        fill="white" />
    <path
        d="M24.1113 85.4854C23.7265 85.1224 23.7084 84.7562 24.0569 84.3869L26.6616 81.6169C27.013 81.2445 27.381 81.2398 27.7658 81.6028C28.1505 81.9658 28.1687 82.332 27.8202 82.7013L25.2024 85.4851C24.8597 85.8483 24.496 85.8484 24.1113 85.4854ZM22.8044 86.8705C22.4197 86.5075 22.4015 86.1413 22.75 85.772C23.0985 85.4026 23.4651 85.3994 23.8499 85.7624C24.2347 86.1254 24.2528 86.4916 23.9043 86.861C23.5558 87.2304 23.1892 87.2335 22.8044 86.8705Z"
        fill="white" />
    <path
        d="M24.8059 80.7262L22.7244 78.5361C22.5116 78.3122 22.2825 78.3168 22.0371 78.55L21.1168 79.4246C20.8714 79.6578 20.8581 79.8895 21.0767 80.1195L23.1494 82.3005L24.8059 80.7262ZM19.9724 81.169C19.025 80.1721 19.042 79.2072 20.0236 78.2743L20.9438 77.3997C21.9254 76.4669 22.8885 76.4973 23.833 77.4912L25.9145 79.6814L26.7427 78.8942C27.1108 78.5444 27.4756 78.5597 27.8371 78.94C28.2015 79.3235 28.2027 79.6872 27.8408 80.0312L24.2427 83.4508L24.247 83.4554L23.1428 84.5049L19.9724 81.169Z"
        fill="white" />
    <path
        d="M17.8788 77.9986L15.1259 74.1145C14.8194 73.6834 14.8714 73.3219 15.2819 73.0302C15.6958 72.736 16.056 72.8044 16.3624 73.2356L19.1132 77.1056C19.1804 77.1929 19.264 77.2009 19.364 77.1298C19.4675 77.0563 19.4886 76.9764 19.4273 76.8901L17.2208 73.7858C16.55 72.8349 16.6808 72.0254 17.6131 71.3576C18.5468 70.6991 19.3508 70.8441 20.025 71.7926L22.7832 75.673C23.0896 76.1042 23.0359 76.4668 22.622 76.761C22.2081 77.0552 21.8479 76.9868 21.5414 76.5556L18.7833 72.6752C18.722 72.589 18.6396 72.5827 18.5361 72.6562C18.4258 72.7347 18.4012 72.817 18.4625 72.9032L20.669 76.0075C21.3432 76.9561 21.2147 77.7613 20.2834 78.4233C19.3521 79.0852 18.5506 78.9437 17.8788 77.9986Z"
        fill="white" />
    <path
        d="M17.0405 64.9267L19.0641 69.0529C19.6698 70.2877 19.3647 71.2032 18.1489 71.7995L15.872 72.9233C15.4161 73.1469 15.0717 73.0212 14.8387 72.5463C14.6058 72.0714 14.7173 71.7221 15.1732 71.4985L17.4501 70.3747C17.754 70.2257 17.8361 70.0087 17.6964 69.7237L16.3715 67.0223L13.6359 68.364C13.18 68.5876 12.8365 68.4639 12.6054 67.9927C12.3725 67.5178 12.483 67.1666 12.9371 66.9392L17.0405 64.9267Z"
        fill="white" />
    <path
        d="M12.9666 63.0503L13.6445 65.1661L16.5461 64.2365C17.0297 64.0815 17.3515 64.2539 17.5116 64.7537C17.673 65.2574 17.5119 65.5867 17.0283 65.7417L12.6778 67.1421L10.4991 60.3415C10.0795 59.0317 10.5145 58.1703 11.8041 57.7571L14.2201 56.9764C14.7037 56.8215 15.0262 56.9959 15.1876 57.4997C15.349 58.0034 15.1886 58.3348 14.7062 58.4937L12.2882 59.2684C11.9658 59.3717 11.8524 59.5724 11.948 59.8707L12.4825 61.5391L15.3841 60.6095C15.8677 60.4545 16.1895 60.6269 16.3496 61.1267C16.511 61.6304 16.3499 61.9597 15.8663 62.1147L12.9666 63.0503Z"
        fill="white" />
    <path
        d="M13.9009 45.9802L13.448 48.1552L16.4309 48.7764C16.928 48.8799 17.1231 49.1886 17.0161 49.7023C16.9083 50.2201 16.6058 50.4273 16.1086 50.3238L11.633 49.3983L13.0889 42.4071C13.3692 41.0607 14.1723 40.5255 15.498 40.8016L17.9851 41.313C18.4822 41.4165 18.6769 41.7272 18.569 42.2451C18.4612 42.7629 18.1583 42.9722 17.6602 42.8728L15.1745 42.3551C14.8431 42.2861 14.6454 42.4049 14.5816 42.7115L14.2244 44.4266L17.2073 45.0478C17.7045 45.1513 17.8995 45.46 17.7926 45.9737C17.6847 46.4915 17.3822 46.6987 16.8851 46.5952L13.9009 45.9802Z"
        fill="white" />
    <path
        d="M17.7231 34.2225C17.9975 33.7703 18.3518 33.6759 18.7859 33.9393L22.0399 35.9063C22.4776 36.1719 22.5593 36.5309 22.2849 36.9831C22.0105 37.4353 21.6562 37.5297 21.2221 37.2663L17.9519 35.2894C17.525 35.0304 17.4487 34.6747 17.7231 34.2225ZM16.0951 33.2346C16.3695 32.7824 16.7238 32.688 17.1579 32.9514C17.5921 33.2149 17.6719 33.5727 17.3975 34.0249C17.1231 34.4771 16.7688 34.5715 16.3347 34.3081C15.9006 34.0447 15.8207 33.6868 16.0951 33.2346Z"
        fill="white" />
    <path
        d="M22.5141 33.925L24.22 31.4311C24.3944 31.1761 24.3419 30.9531 24.0625 30.7619L23.0146 30.0452C22.7352 29.8541 22.5059 29.8895 22.3267 30.1514L20.628 32.6348L22.5141 33.925ZM21.0693 29.2913C21.8458 28.1562 22.7929 27.9708 23.9106 28.7354L24.9584 29.4521C26.0761 30.2167 26.2479 31.1648 25.4738 32.2965L23.7679 34.7903L24.711 35.4354C25.1301 35.7221 25.1916 36.082 24.8953 36.5151C24.5967 36.9517 24.2413 37.029 23.8291 36.7471L19.732 33.9446L19.7285 33.9498L18.4711 33.0897L21.0693 29.2913Z"
        fill="white" />
    <path
        d="M23.7468 26.5927L26.9827 23.1007C27.3417 22.7122 27.7061 22.6888 28.0759 23.0306C28.4489 23.3753 28.4558 23.7419 28.0968 24.1303L24.8743 27.6173C24.8027 27.701 24.812 27.7845 24.9021 27.8678C24.9953 27.9539 25.0779 27.9582 25.1497 27.8805L27.7346 25.0834C28.5276 24.2316 29.3466 24.1934 30.1917 24.9686C31.0279 25.7472 31.0511 26.5638 30.2613 27.4185L27.0301 30.9148C26.6711 31.3033 26.3051 31.3252 25.9322 30.9805C25.5592 30.6359 25.5523 30.2693 25.9113 29.8808L29.1425 26.3845C29.2143 26.3068 29.2035 26.2249 29.1103 26.1387C29.0109 26.0468 28.9252 26.0397 28.8534 26.1174L26.2685 28.9145C25.4786 29.7691 24.6642 29.8087 23.8251 29.0332C22.9859 28.2577 22.9599 27.4442 23.7468 26.5927Z"
        fill="white" />
    <path
        d="M36.3486 23.0733L32.734 25.9116C31.6524 26.7609 30.6933 26.6531 29.857 25.5881L28.2839 23.595C27.9703 23.1956 28.0215 22.8326 28.4375 22.5059C28.8536 22.1792 29.2184 22.2156 29.532 22.615L31.1051 24.608C31.3142 24.8743 31.5436 24.9094 31.7932 24.7134L34.1596 22.8552L32.2779 20.4588C31.9642 20.0594 32.0138 19.6977 32.4265 19.3736C32.8425 19.0469 33.209 19.082 33.526 19.4787L36.3486 23.0733Z"
        fill="white" />
    <path
        d="M37.2988 18.7446L35.3696 19.8463L36.8804 22.4922C37.1323 22.9332 37.0303 23.2838 36.5746 23.544C36.1153 23.8063 35.7597 23.7169 35.5079 23.276L33.2361 19.3103L39.4373 15.7692C40.6317 15.0872 41.5646 15.3341 42.2361 16.5101L43.5007 18.7118C43.7525 19.1528 43.6487 19.5045 43.1893 19.7668C42.73 20.0291 42.3726 19.9408 42.1171 19.5019L40.858 17.297C40.6901 17.003 40.4702 16.9337 40.1983 17.089L38.6769 17.9577L40.1878 20.6036C40.4396 21.0446 40.3377 21.3952 39.882 21.6554C39.4226 21.9177 39.0671 21.8283 38.8152 21.3874L37.2988 18.7446Z"
        fill="white" />
    <path
        d="M47.2119 15.5344C47.0339 14.6205 47.4122 14.0726 48.3468 13.8906L52.0851 13.1625C53.0197 12.9805 53.5752 13.3422 53.7515 14.2477L54.2369 16.7399C54.4149 17.6538 54.0366 18.2017 53.102 18.3837L49.3699 19.1106C48.4353 19.2926 47.877 18.9271 47.6948 18.0141L47.2119 15.5344ZM52.3152 15.1741C52.248 14.851 52.0586 14.7197 51.7471 14.7804L49.2548 15.2658C48.9475 15.3257 48.8253 15.5176 48.8884 15.8416L49.1335 17.1002C49.1967 17.4241 49.3819 17.5562 49.6893 17.4963L52.1815 17.0109C52.493 16.9503 52.6185 16.7534 52.5579 16.4203L52.3152 15.1741Z"
        fill="white" />
    <path
        d="M53.3644 13.3328L57.9551 13.1187C59.329 13.0547 60.0495 13.6989 60.1169 15.0514C60.1405 15.5586 59.8881 15.8246 59.3597 15.8492C58.8313 15.8739 58.5532 15.6327 58.5253 15.1256C58.5096 14.7874 58.3453 14.6256 58.0324 14.6402L55.0206 14.7807L55.1625 17.8243C55.1862 18.3315 54.9359 18.5974 54.4118 18.6218C53.8834 18.6465 53.6073 18.4052 53.5837 17.8979L53.3644 13.3328Z"
        fill="white" />
    <path
        d="M60.9578 17.0038C60.9331 17.2565 61.0788 17.3982 61.3947 17.429L64.5598 17.7375C65.0863 17.7888 65.3249 18.0672 65.2756 18.5726C65.2222 19.0776 64.9343 19.3047 64.412 19.2538L60.6151 18.8837C59.6716 18.7917 59.243 18.2822 59.3291 17.3552L59.5754 14.8281C59.6657 13.9015 60.1847 13.4844 61.1324 13.5768L64.2906 13.891C65.2383 13.9834 65.669 14.4931 65.5829 15.4201L65.522 16.0455C65.4316 16.9721 64.9127 17.3893 63.965 17.2969L60.9578 17.0038ZM63.639 15.7344C63.8496 15.755 63.961 15.7021 63.9733 15.5757C63.9856 15.4493 63.9392 15.381 63.8339 15.3708L61.6163 15.1546C61.3005 15.1238 61.1302 15.2348 61.1056 15.4875L63.639 15.7344Z"
        fill="white" />
    <path
        d="M68.8889 16.6686L66.7226 16.1754L66.0463 19.1463C65.9336 19.6415 65.6214 19.8308 65.1098 19.7143C64.594 19.5969 64.3925 19.2907 64.5052 18.7955L65.5134 14.3378L72.4764 15.9228C73.8174 16.2281 74.3376 17.0409 74.0371 18.3613L73.4797 20.8384C73.367 21.3336 73.0527 21.5224 72.537 21.405C72.0212 21.2876 71.8176 20.9809 71.9262 20.4848L72.4897 18.009C72.5649 17.679 72.4498 17.4791 72.1444 17.4096L70.4362 17.0208L69.7599 19.9917C69.6472 20.4868 69.335 20.6761 68.8234 20.5597C68.3076 20.4423 68.1061 20.136 68.2188 19.6408L68.8889 16.6686Z"
        fill="white" />
    <path
        d="M77.7765 19.0229C78.2421 19.2739 78.3544 19.6229 78.1134 20.0699L76.3144 23.4196C76.0714 23.8703 75.717 23.9701 75.2514 23.7191C74.7858 23.468 74.6736 23.119 74.9146 22.672L76.7226 19.3056C76.9596 18.866 77.3109 18.7718 77.7765 19.0229ZM78.6804 17.3467C79.146 17.5978 79.2582 17.9468 79.0172 18.3938C78.7762 18.8407 78.4229 18.9387 77.9573 18.6876C77.4917 18.4366 77.3794 18.0876 77.6204 17.6406C77.8615 17.1936 78.2148 17.0957 78.6804 17.3467Z"
        fill="white" />
    <path
        d="M78.3152 23.7859L80.8926 25.3627C81.1561 25.5239 81.3762 25.4601 81.5529 25.1714L82.2154 24.0884C82.3921 23.7996 82.345 23.5724 82.0743 23.4068L79.5077 21.8366L78.3152 23.7859ZM82.8693 22.1072C84.0425 22.825 84.2758 23.7614 83.5691 24.9166L82.9066 25.9995C82.1999 27.1547 81.2617 27.3745 80.0922 26.6589L77.5147 25.0821L76.9185 26.0568C76.6535 26.49 76.2972 26.5696 75.8495 26.2958C75.3983 26.0198 75.303 25.6687 75.5636 25.2428L78.154 21.0085L78.1486 21.0052L78.9436 19.7056L82.8693 22.1072Z"
        fill="white" />
    <path
        d="M85.6808 24.6019L89.3452 27.6411C89.7528 27.9783 89.7961 28.3409 89.4752 28.7289C89.1515 29.1202 88.7859 29.1473 88.3783 28.8102L84.7196 25.7839C84.6321 25.7171 84.5493 25.7309 84.471 25.8255C84.3901 25.9233 84.3904 26.0059 84.472 26.0734L87.4067 28.5008C88.3008 29.2458 88.384 30.0615 87.6563 30.9479C86.9248 31.8256 86.1107 31.8936 85.214 31.1519L81.5455 28.1176C81.1379 27.7805 81.0959 27.4162 81.4196 27.0249C81.7432 26.6336 82.1088 26.6065 82.5165 26.9437L86.1849 29.978C86.2664 30.0454 86.3477 30.0302 86.4286 29.9324C86.5149 29.828 86.5173 29.7422 86.4358 29.6747L83.501 27.2473C82.6042 26.5056 82.52 25.6945 83.2482 24.8141C83.9765 23.9336 84.7873 23.8629 85.6808 24.6019Z"
        fill="white" />
    <path
        d="M89.8472 36.9808L86.8245 33.519C85.9199 32.483 85.9777 31.5197 86.9977 30.629L88.9061 28.9542C89.2887 28.6202 89.6539 28.6525 90.0018 29.0509C90.3497 29.4494 90.3324 29.8156 89.9499 30.1496L88.0415 31.8244C87.7864 32.047 87.7633 32.2779 87.9721 32.517L89.951 34.7834L92.2461 32.7794C92.6286 32.4454 92.9924 32.4761 93.3376 32.8713C93.6855 33.2698 93.6696 33.6376 93.2898 33.9748L89.8472 36.9808Z"
        fill="white" />
    <path
        d="M94.2431 37.7005L93.0407 35.8323L90.4786 37.4812C90.0516 37.756 89.6961 37.6728 89.4121 37.2315C89.1258 36.7867 89.1962 36.4269 89.6232 36.1521L93.463 33.6734L97.3276 39.6784C98.0719 40.8349 97.8747 41.7796 96.736 42.5124L94.6043 43.8918C94.1773 44.1667 93.8207 44.0817 93.5344 43.6368C93.2481 43.192 93.3174 42.8304 93.7421 42.5521L95.8772 41.178C96.1619 40.9948 96.2195 40.7715 96.05 40.5082L95.1019 39.0349L92.5397 40.6838C92.1127 40.9587 91.7572 40.8754 91.4732 40.4342C91.187 39.9894 91.2574 39.6296 91.6844 39.3547L94.2431 37.7005Z"
        fill="white" />
    <defs>
        <linearGradient id="paint0_linear_0_39" x1="55.5" y1="0" x2="55.5" y2="111"
            gradientUnits="userSpaceOnUse">
            <stop stop-color="#5C45F7" />
            <stop offset="0.46875" stop-color="#965CFF" />
        </linearGradient>
    </defs>
</svg>