<svg width="" height="" viewBox="0 0 111 111" fill="none" xmlns="http://www.w3.org/2000/svg">
    <circle cx="55.5" cy="55.5" r="55.5" fill="white" />
    <path
        d="M50.0543 60.079L47.4944 52.8632C47.3375 52.4211 47.5091 51.9294 47.9069 51.6808L63.3516 42.03C64.0415 41.599 64.93 42.1281 64.8796 42.9401L63.8325 59.8066C63.7998 60.3339 63.3627 60.7447 62.8344 60.7447H50.9967C50.5733 60.7447 50.1958 60.478 50.0543 60.079Z"
        fill="#6A3DF8" />
    <path
        d="M48.8692 61.7601L48.3281 59.4449C48.0622 58.3075 46.3949 58.4708 46.3549 59.6383L46.0552 68.3878C46.0298 69.1295 46.7929 69.6395 47.4685 69.3323L59.8427 63.7065C60.861 63.2435 60.4669 61.7127 59.3516 61.7991L49.9202 62.5295C49.4279 62.5676 48.9816 62.2408 48.8692 61.7601Z"
        fill="#6A3DF8" />
    <path
        d="M100.547 54.9577C101.477 55.0044 101.918 55.5032 101.87 56.4542L101.679 60.258C101.632 61.209 101.147 61.6613 100.226 61.615L97.6899 61.4877C96.7601 61.441 96.319 60.9422 96.3668 59.9913L96.5574 56.1938C96.6052 55.2429 97.0941 54.7886 98.0241 54.8311L100.547 54.9577ZM99.6714 59.9983C100.001 60.0106 100.174 59.8583 100.19 59.5413L100.317 57.0054C100.333 56.6927 100.176 56.528 99.8464 56.5115L98.5658 56.4472C98.2361 56.4306 98.0635 56.5787 98.0478 56.8915L97.9204 59.4274C97.9045 59.7443 98.0655 59.9134 98.4034 59.9346L99.6714 59.9983Z"
        fill="#6A3DF8" />
    <path
        d="M101.194 61.6014L100.299 66.109C100.031 67.458 99.232 68.0026 97.903 67.7429C97.4049 67.6439 97.2074 67.3351 97.3105 66.8162C97.4136 66.2974 97.7146 66.0854 98.2135 66.1802C98.5455 66.2461 98.742 66.1256 98.8031 65.8184L99.3906 62.8611L96.4021 62.2673C95.904 62.1684 95.7061 61.8616 95.8084 61.3469C95.9115 60.8281 96.212 60.6181 96.7101 60.7171L101.194 61.6014Z"
        fill="#6A3DF8" />
    <path
        d="M95.8053 68.0986C95.5659 68.0139 95.3933 68.1211 95.2874 68.4203L94.2263 71.4182C94.0498 71.9169 93.7222 72.0815 93.2435 71.9121C92.7662 71.7386 92.6151 71.4046 92.7902 70.9099L94.063 67.3136C94.3793 66.42 94.977 66.1265 95.856 66.4332L98.2496 67.2803C99.1272 67.591 99.4072 68.1951 99.0895 69.0927L98.0246 72.0825C97.7069 72.9801 97.1085 73.2756 96.2294 72.9689L95.637 72.7592C94.7594 72.4486 94.4794 71.8445 94.7971 70.9469L95.8053 68.0986ZM96.3921 71.0064C96.3215 71.2059 96.346 71.3268 96.4657 71.3692C96.5854 71.4115 96.6629 71.3828 96.6982 71.2831L97.4416 69.1828C97.5475 68.8836 97.4808 68.6916 97.2414 68.6069L96.3921 71.0064Z"
        fill="#6A3DF8" />
    <path
        d="M94.2 75.934L95.2004 73.9503L92.4799 72.5783C92.0265 72.3496 91.918 72.001 92.1543 71.5325C92.3925 71.0602 92.7383 70.9384 93.1917 71.167L97.2753 73.2194L94.0596 79.5955C93.4403 80.8235 92.5261 81.1326 91.3169 80.5228L89.047 79.3851C88.5936 79.1565 88.486 78.806 88.7242 78.3337C88.9624 77.8614 89.3092 77.7377 89.7645 77.9626L92.0315 79.1059C92.3338 79.2584 92.5555 79.1948 92.6965 78.9152L93.4854 77.3509L90.7649 75.9789C90.3115 75.7502 90.2029 75.4016 90.4392 74.9331C90.6774 74.4608 91.0232 74.339 91.4767 74.5676L94.2 75.934Z"
        fill="#6A3DF8" />
    <path
        d="M87.4177 86.3558C87.0356 86.7216 86.6689 86.7211 86.3178 86.3543L83.6838 83.6121C83.3298 83.2422 83.3438 82.8744 83.7259 82.5086C84.108 82.1428 84.4746 82.1433 84.8258 82.5101L87.4729 85.2661C87.8182 85.6268 87.7998 85.99 87.4177 86.3558ZM88.7346 87.7314C88.3524 88.0972 87.9858 88.0967 87.6347 87.7298C87.2835 87.363 87.299 86.9967 87.6811 86.6309C88.0632 86.2651 88.4298 86.2656 88.781 86.6325C89.1321 86.9993 89.1167 87.3656 88.7346 87.7314Z"
        fill="#6A3DF8" />
    <path
        d="M82.6928 85.4202L80.3996 87.3876C80.1651 87.5887 80.1581 87.8178 80.3785 88.0747L81.2052 89.0383C81.4256 89.2952 81.6563 89.3203 81.8971 89.1137L84.1807 87.1546L82.6928 85.4202ZM82.8891 90.2699C81.8453 91.1654 80.8825 91.0993 80.0007 90.0715L79.1741 89.108C78.2924 88.0802 78.3718 87.12 79.4124 86.2272L81.7057 84.2599L80.9617 83.3927C80.631 83.0073 80.6649 82.6437 81.0631 82.302C81.4646 81.9576 81.8279 81.9749 82.153 82.3539L85.3851 86.1213L85.39 86.1172L86.3819 87.2734L82.8891 90.2699Z"
        fill="#6A3DF8" />
    <path
        d="M79.5698 92.2056L75.5404 94.7411C75.0931 95.0235 74.735 94.9517 74.4663 94.5258C74.1952 94.0964 74.2834 93.7405 74.7307 93.4582L78.746 90.9241C78.8368 90.8618 78.8494 90.7787 78.7839 90.675C78.7161 90.5676 78.6375 90.5421 78.5481 90.5986L75.3273 92.6313C74.3409 93.2489 73.5399 93.0738 72.9242 92.1063C72.318 91.1378 72.5069 90.343 73.4911 89.7219L77.517 87.181C77.9644 86.8987 78.3236 86.9722 78.5946 87.4017C78.8656 87.8311 78.7775 88.187 78.3301 88.4693L74.3041 91.0102C74.2147 91.0667 74.2038 91.1486 74.2716 91.2559C74.3439 91.3704 74.4247 91.3995 74.5142 91.343L77.735 89.3103C78.7191 88.6892 79.5161 88.8618 80.1259 89.828C80.7357 90.7942 80.5503 91.5868 79.5698 92.2056Z"
        fill="#6A3DF8" />
    <path
        d="M66.4492 92.3593L70.6751 90.5533C71.9398 90.0128 72.8382 90.3652 73.3704 91.6104L74.374 93.9427C74.5736 94.4096 74.4302 94.747 73.9438 94.9549C73.4573 95.1628 73.1144 95.0333 72.9148 94.5663L71.9111 92.234C71.7781 91.9227 71.5656 91.8294 71.2738 91.9541L68.5071 93.1366L69.7045 95.9383C69.904 96.4053 69.7626 96.7418 69.28 96.9481C68.7936 97.1559 68.4487 97.0272 68.2452 96.5619L66.4492 92.3593Z"
        fill="#6A3DF8" />
    <path
        d="M47.3305 97.3669L42.8408 96.3855C41.4972 96.0919 40.9679 95.2831 41.2529 93.9593C41.3614 93.4632 41.674 93.2716 42.1907 93.3845C42.7075 93.4975 42.9137 93.8025 42.8094 94.2995C42.7372 94.6302 42.854 94.829 43.1599 94.8959L46.1055 95.5397L46.7561 92.5631C46.8646 92.067 47.1751 91.875 47.6877 91.9871C48.2045 92.1 48.4087 92.4046 48.3002 92.9007L47.3305 97.3669Z"
        fill="#6A3DF8" />
    <path
        d="M40.9126 91.8434C41.0018 91.6056 40.8978 91.431 40.6007 91.3195L37.6232 90.2023C37.1279 90.0165 36.9695 89.6858 37.1479 89.2104C37.3303 88.7364 37.6671 88.5916 38.1584 88.776L41.7302 90.1162C42.6177 90.4492 42.8998 91.0523 42.5767 91.9254L41.6848 94.3026C41.3577 95.1743 40.7484 95.4429 39.857 95.1084L36.8877 93.9874C35.9962 93.6529 35.712 93.0491 36.0351 92.176L36.2559 91.5876C36.583 90.716 37.1922 90.4474 38.0837 90.7819L40.9126 91.8434ZM37.9942 92.3755C37.7961 92.3011 37.6748 92.3234 37.6302 92.4423C37.5856 92.5611 37.6128 92.6391 37.7118 92.6763L39.7979 93.459C40.095 93.5705 40.2882 93.5074 40.3774 93.2697L37.9942 92.3755Z"
        fill="#6A3DF8" />
    <path
        d="M33.1267 90.0941L35.0915 91.131L36.5137 88.4364C36.7507 87.9873 37.1012 87.8852 37.5653 88.1302C38.0331 88.3771 38.1485 88.7251 37.9115 89.1742L35.7839 93.219L29.4684 89.8859C28.2521 89.2439 27.9599 88.3242 28.592 87.1266L29.7715 84.8781C30.0085 84.429 30.361 84.3279 30.8288 84.5748C31.2966 84.8217 31.4139 85.1707 31.1806 85.6218L29.9955 87.8673C29.8374 88.1667 29.8969 88.3895 30.1739 88.5356L31.7233 89.3534L33.1454 86.6587C33.3824 86.2096 33.733 86.1075 34.1971 86.3525C34.6649 86.5994 34.7803 86.9474 34.5432 87.3965L33.1267 90.0941Z"
        fill="#6A3DF8" />
    <path
        d="M25.1113 85.4854C24.7265 85.1224 24.7084 84.7562 25.0569 84.3869L27.6616 81.6169C28.013 81.2445 28.381 81.2398 28.7658 81.6028C29.1505 81.9658 29.1687 82.332 28.8202 82.7013L26.2024 85.4851C25.8597 85.8483 25.496 85.8484 25.1113 85.4854ZM23.8044 86.8705C23.4197 86.5075 23.4015 86.1413 23.75 85.772C24.0985 85.4026 24.4651 85.3994 24.8499 85.7624C25.2347 86.1254 25.2528 86.4916 24.9043 86.861C24.5558 87.2304 24.1892 87.2335 23.8044 86.8705Z"
        fill="#6A3DF8" />
    <path
        d="M25.8059 80.7262L23.7244 78.5361C23.5116 78.3122 23.2825 78.3168 23.0371 78.55L22.1168 79.4246C21.8714 79.6578 21.8581 79.8895 22.0767 80.1195L24.1494 82.3005L25.8059 80.7262ZM20.9724 81.169C20.025 80.1721 20.042 79.2072 21.0236 78.2743L21.9438 77.3997C22.9254 76.4669 23.8885 76.4973 24.833 77.4912L26.9145 79.6814L27.7427 78.8942C28.1108 78.5444 28.4756 78.5597 28.8371 78.94C29.2015 79.3235 29.2027 79.6872 28.8408 80.0312L25.2427 83.4508L25.247 83.4554L24.1428 84.5049L20.9724 81.169Z"
        fill="#6A3DF8" />
    <path
        d="M18.8788 77.9986L16.1259 74.1145C15.8194 73.6834 15.8714 73.3219 16.2819 73.0302C16.6958 72.736 17.056 72.8044 17.3624 73.2356L20.1132 77.1056C20.1804 77.1929 20.264 77.2009 20.364 77.1298C20.4675 77.0563 20.4886 76.9764 20.4273 76.8901L18.2208 73.7858C17.55 72.8349 17.6808 72.0254 18.6131 71.3576C19.5468 70.6991 20.3508 70.8441 21.025 71.7926L23.7832 75.673C24.0896 76.1042 24.0359 76.4668 23.622 76.761C23.2081 77.0552 22.8479 76.9868 22.5414 76.5556L19.7833 72.6752C19.722 72.589 19.6396 72.5827 19.5361 72.6562C19.4258 72.7347 19.4012 72.817 19.4625 72.9032L21.669 76.0075C22.3432 76.9561 22.2147 77.7613 21.2834 78.4233C20.3521 79.0852 19.5506 78.9437 18.8788 77.9986Z"
        fill="#6A3DF8" />
    <path
        d="M18.7231 34.2225C18.9975 33.7703 19.3518 33.6759 19.7859 33.9393L23.0399 35.9063C23.4776 36.1719 23.5593 36.5309 23.2849 36.9831C23.0105 37.4353 22.6562 37.5297 22.2221 37.2663L18.9519 35.2894C18.525 35.0304 18.4487 34.6747 18.7231 34.2225ZM17.0951 33.2346C17.3695 32.7824 17.7238 32.688 18.1579 32.9514C18.5921 33.2149 18.6719 33.5727 18.3975 34.0249C18.1231 34.4771 17.7688 34.5715 17.3347 34.3081C16.9006 34.0447 16.8207 33.6868 17.0951 33.2346Z"
        fill="#6A3DF8" />
    <path
        d="M23.5141 33.925L25.22 31.4311C25.3944 31.1761 25.3419 30.9531 25.0625 30.7619L24.0146 30.0452C23.7352 29.8541 23.5059 29.8895 23.3267 30.1514L21.628 32.6348L23.5141 33.925ZM22.0693 29.2913C22.8458 28.1562 23.7929 27.9708 24.9106 28.7354L25.9584 29.4521C27.0761 30.2167 27.2479 31.1648 26.4738 32.2965L24.7679 34.7903L25.711 35.4354C26.1301 35.7221 26.1916 36.082 25.8953 36.5151C25.5967 36.9517 25.2413 37.029 24.8291 36.7471L20.732 33.9446L20.7285 33.9498L19.4711 33.0897L22.0693 29.2913Z"
        fill="#6A3DF8" />
    <path
        d="M24.7468 26.5927L27.9827 23.1007C28.3417 22.7122 28.7061 22.6888 29.0759 23.0306C29.4489 23.3753 29.4558 23.7419 29.0968 24.1303L25.8743 27.6173C25.8027 27.701 25.812 27.7845 25.9021 27.8678C25.9953 27.9539 26.0779 27.9582 26.1497 27.8805L28.7346 25.0834C29.5276 24.2316 30.3466 24.1934 31.1917 24.9686C32.0279 25.7472 32.0511 26.5638 31.2613 27.4185L28.0301 30.9148C27.6711 31.3033 27.3051 31.3252 26.9322 30.9805C26.5592 30.6359 26.5523 30.2693 26.9113 29.8808L30.1425 26.3845C30.2143 26.3068 30.2035 26.2249 30.1103 26.1387C30.0109 26.0468 29.9252 26.0397 29.8534 26.1174L27.2685 28.9145C26.4786 29.7691 25.6642 29.8087 24.8251 29.0332C23.9859 28.2577 23.9599 27.4442 24.7468 26.5927Z"
        fill="#6A3DF8" />
    <path
        d="M37.3486 23.0733L33.734 25.9116C32.6524 26.7609 31.6933 26.6531 30.857 25.5881L29.2839 23.595C28.9703 23.1956 29.0215 22.8326 29.4375 22.5059C29.8536 22.1792 30.2184 22.2156 30.532 22.615L32.1051 24.608C32.3142 24.8743 32.5436 24.9094 32.7932 24.7134L35.1596 22.8552L33.2779 20.4588C32.9642 20.0594 33.0138 19.6977 33.4265 19.3736C33.8425 19.0469 34.209 19.082 34.526 19.4787L37.3486 23.0733Z"
        fill="#6A3DF8" />
    <path
        d="M38.2988 18.7446L36.3696 19.8463L37.8804 22.4922C38.1323 22.9332 38.0303 23.2838 37.5746 23.544C37.1153 23.8063 36.7597 23.7169 36.5079 23.276L34.2361 19.3103L40.4373 15.7692C41.6317 15.0872 42.5646 15.3341 43.2361 16.5101L44.5007 18.7118C44.7525 19.1528 44.6487 19.5045 44.1893 19.7668C43.73 20.0291 43.3726 19.9408 43.1171 19.5019L41.858 17.297C41.6901 17.003 41.4702 16.9337 41.1983 17.089L39.6769 17.9577L41.1878 20.6036C41.4396 21.0446 41.3377 21.3952 40.882 21.6554C40.4226 21.9177 40.0671 21.8283 39.8152 21.3874L38.2988 18.7446Z"
        fill="#6A3DF8" />
    <path
        d="M48.2119 15.5344C48.0339 14.6205 48.4122 14.0726 49.3468 13.8906L53.0851 13.1625C54.0197 12.9805 54.5752 13.3422 54.7515 14.2477L55.2369 16.7399C55.4149 17.6538 55.0366 18.2017 54.102 18.3837L50.3699 19.1106C49.4353 19.2926 48.877 18.9271 48.6948 18.0141L48.2119 15.5344ZM53.3152 15.1741C53.248 14.851 53.0586 14.7197 52.7471 14.7804L50.2548 15.2658C49.9475 15.3257 49.8253 15.5176 49.8884 15.8416L50.1335 17.1002C50.1967 17.4241 50.3819 17.5562 50.6893 17.4963L53.1815 17.0109C53.493 16.9503 53.6185 16.7534 53.5579 16.4203L53.3152 15.1741Z"
        fill="#6A3DF8" />
    <path
        d="M54.3644 13.3328L58.9551 13.1187C60.329 13.0547 61.0495 13.6989 61.1169 15.0514C61.1405 15.5586 60.8881 15.8246 60.3597 15.8492C59.8313 15.8739 59.5532 15.6327 59.5253 15.1256C59.5096 14.7874 59.3453 14.6256 59.0324 14.6402L56.0206 14.7807L56.1625 17.8243C56.1862 18.3315 55.9359 18.5974 55.4118 18.6218C54.8834 18.6465 54.6073 18.4052 54.5837 17.8979L54.3644 13.3328Z"
        fill="#6A3DF8" />
    <path
        d="M61.9578 17.0038C61.9331 17.2565 62.0788 17.3982 62.3947 17.429L65.5598 17.7375C66.0863 17.7888 66.3249 18.0672 66.2756 18.5726C66.2222 19.0776 65.9343 19.3047 65.412 19.2538L61.6151 18.8837C60.6716 18.7917 60.243 18.2822 60.3291 17.3552L60.5754 14.8281C60.6657 13.9015 61.1847 13.4844 62.1324 13.5768L65.2906 13.891C66.2383 13.9834 66.669 14.4931 66.5829 15.4201L66.522 16.0455C66.4316 16.9721 65.9127 17.3893 64.965 17.2969L61.9578 17.0038ZM64.639 15.7344C64.8496 15.755 64.961 15.7021 64.9733 15.5757C64.9856 15.4493 64.9392 15.381 64.8339 15.3708L62.6163 15.1546C62.3005 15.1238 62.1302 15.2348 62.1056 15.4875L64.639 15.7344Z"
        fill="#6A3DF8" />
    <path
        d="M69.8889 16.6686L67.7226 16.1754L67.0463 19.1463C66.9336 19.6415 66.6214 19.8308 66.1098 19.7143C65.594 19.5969 65.3925 19.2907 65.5052 18.7955L66.5134 14.3378L73.4764 15.9228C74.8174 16.2281 75.3376 17.0409 75.0371 18.3613L74.4797 20.8384C74.367 21.3336 74.0527 21.5224 73.537 21.405C73.0212 21.2876 72.8176 20.9809 72.9262 20.4848L73.4897 18.009C73.5649 17.679 73.4498 17.4791 73.1444 17.4096L71.4362 17.0208L70.7599 19.9917C70.6472 20.4868 70.335 20.6761 69.8234 20.5597C69.3076 20.4423 69.1061 20.136 69.2188 19.6408L69.8889 16.6686Z"
        fill="#6A3DF8" />
    <path
        d="M78.7765 19.0229C79.2421 19.2739 79.3544 19.6229 79.1134 20.0699L77.3144 23.4196C77.0714 23.8703 76.717 23.9701 76.2514 23.7191C75.7858 23.468 75.6736 23.119 75.9146 22.672L77.7226 19.3056C77.9596 18.866 78.3109 18.7718 78.7765 19.0229ZM79.6804 17.3467C80.146 17.5978 80.2582 17.9468 80.0172 18.3938C79.7762 18.8407 79.4229 18.9387 78.9573 18.6876C78.4917 18.4366 78.3794 18.0876 78.6204 17.6406C78.8615 17.1936 79.2148 17.0957 79.6804 17.3467Z"
        fill="#6A3DF8" />
    <path
        d="M79.3152 23.7859L81.8926 25.3627C82.1561 25.5239 82.3762 25.4601 82.5529 25.1714L83.2154 24.0884C83.3921 23.7996 83.345 23.5724 83.0743 23.4068L80.5077 21.8366L79.3152 23.7859ZM83.8693 22.1072C85.0425 22.825 85.2758 23.7614 84.5691 24.9166L83.9066 25.9995C83.1999 27.1547 82.2617 27.3745 81.0922 26.6589L78.5147 25.0821L77.9185 26.0568C77.6535 26.49 77.2972 26.5696 76.8495 26.2958C76.3983 26.0198 76.303 25.6687 76.5636 25.2428L79.154 21.0085L79.1486 21.0052L79.9436 19.7056L83.8693 22.1072Z"
        fill="#6A3DF8" />
    <path
        d="M86.6808 24.6019L90.3452 27.6411C90.7528 27.9783 90.7961 28.3409 90.4752 28.7289C90.1515 29.1202 89.7859 29.1473 89.3783 28.8102L85.7196 25.7839C85.6321 25.7171 85.5493 25.7309 85.471 25.8255C85.3901 25.9233 85.3904 26.0059 85.472 26.0734L88.4067 28.5008C89.3008 29.2458 89.384 30.0615 88.6563 30.9479C87.9248 31.8256 87.1107 31.8936 86.214 31.1519L82.5455 28.1176C82.1379 27.7805 82.0959 27.4162 82.4196 27.0249C82.7432 26.6336 83.1088 26.6065 83.5165 26.9437L87.1849 29.978C87.2664 30.0454 87.3477 30.0302 87.4286 29.9324C87.5149 29.828 87.5173 29.7422 87.4358 29.6747L84.501 27.2473C83.6042 26.5056 83.52 25.6945 84.2482 24.8141C84.9765 23.9336 85.7873 23.8629 86.6808 24.6019Z"
        fill="#6A3DF8" />
    <path
        d="M90.8472 36.9808L87.8245 33.519C86.9199 32.483 86.9777 31.5197 87.9977 30.629L89.9061 28.9542C90.2887 28.6202 90.6539 28.6525 91.0018 29.0509C91.3497 29.4494 91.3324 29.8156 90.9499 30.1496L89.0415 31.8244C88.7864 32.047 88.7633 32.2779 88.9721 32.517L90.951 34.7834L93.2461 32.7794C93.6286 32.4454 93.9924 32.4761 94.3376 32.8713C94.6855 33.2698 94.6696 33.6376 94.2898 33.9748L90.8472 36.9808Z"
        fill="#6A3DF8" />
    <path
        d="M95.2431 37.7005L94.0407 35.8323L91.4786 37.4812C91.0516 37.756 90.6961 37.6728 90.4121 37.2315C90.1258 36.7867 90.1962 36.4269 90.6232 36.1521L94.463 33.6734L98.3276 39.6784C99.0719 40.8349 98.8747 41.7796 97.736 42.5124L95.6043 43.8918C95.1773 44.1667 94.8207 44.0817 94.5344 43.6368C94.2481 43.192 94.3174 42.8304 94.7421 42.5521L96.8772 41.178C97.1619 40.9948 97.2195 40.7715 97.05 40.5082L96.1019 39.0349L93.5397 40.6838C93.1127 40.9587 92.7572 40.8754 92.4732 40.4342C92.187 39.9894 92.2574 39.6296 92.6844 39.3547L95.2431 37.7005Z"
        fill="#6A3DF8" />
</svg>