<svg width="" height="" viewBox="0 0 37 41" fill="none" xmlns="http://www.w3.org/2000/svg">
    <path
        d="M26.577 9.89474C26.577 14.8072 22.6594 18.7895 17.827 18.7895C12.9946 18.7895 9.077 14.8072 9.077 9.89474C9.077 4.9823 12.9946 1 17.827 1C22.6594 1 26.577 4.9823 26.577 9.89474Z"
        stroke="white" stroke-width="2" />
    <path
        d="M36 33.1578C36 34.8894 34.2945 36.5711 31.1386 37.8671C27.987 39.1616 23.5252 39.9999 18.5 39.9999C13.4748 39.9999 9.01307 39.1616 5.8613 37.8671C2.70551 36.5711 1 34.8894 1 33.1578C1 31.4262 2.70551 29.7445 5.8613 28.4485C9.01307 27.154 13.4748 26.3157 18.5 26.3157C23.5252 26.3157 27.987 27.154 31.1386 28.4485C34.2945 29.7445 36 31.4262 36 33.1578Z"
        stroke="white" stroke-width="2" />
</svg>